<svg width="41" height="32" viewBox="0 0 41 32" fill="none" xmlns="http://www.w3.org/2000/svg">
<path d="M36.3001 0.194458H4.06015C1.83444 0.194458 0.0301514 2.19923 0.0301514 4.67224V27.0611C0.0301514 29.5341 1.83444 31.5389 4.06015 31.5389H36.3001C38.5258 31.5389 40.3301 29.5341 40.3301 27.0611V4.67224C40.3301 2.19923 38.5258 0.194458 36.3001 0.194458Z" fill="#0DB2F2"/>
<path d="M40.3301 6.91107H0.0301514V13.6277H40.3301V6.91107Z" fill="#005B96"/>
<path d="M34.2849 20.3445H30.2549C29.142 20.3445 28.2399 21.3469 28.2399 22.5834C28.2399 23.8199 29.142 24.8223 30.2549 24.8223H34.2849C35.3977 24.8223 36.2999 23.8199 36.2999 22.5834C36.2999 21.3469 35.3977 20.3445 34.2849 20.3445Z" fill="#005B96"/>
</svg>
