<svg width="49" height="29" viewBox="0 0 49 29" fill="none" xmlns="http://www.w3.org/2000/svg">
<path fill-rule="evenodd" clip-rule="evenodd" d="M3.0225 0.0750122H9.0675C10.7368 0.0750122 12.09 1.42823 12.09 3.09751V25.2625C12.09 26.9318 10.7368 28.285 9.0675 28.285H3.0225C1.35322 28.285 0 26.9318 0 25.2625V3.09751C0 1.42823 1.35322 0.0750122 3.0225 0.0750122ZM37.2775 0.0750122H45.3375C47.0068 0.0750122 48.36 1.42823 48.36 3.09751V25.2625C48.36 26.9318 47.0068 28.285 45.3375 28.285H37.2775C35.6082 28.285 34.255 26.9318 34.255 25.2625V3.09751C34.255 1.42823 35.6082 0.0750122 37.2775 0.0750122Z" fill="#0DB2F2"/>
<path d="M27.2025 0.0750122H19.1425C17.4732 0.0750122 16.12 1.42823 16.12 3.09751V25.2625C16.12 26.9318 17.4732 28.285 19.1425 28.285H27.2025C28.8718 28.285 30.225 26.9318 30.225 25.2625V3.09751C30.225 1.42823 28.8718 0.0750122 27.2025 0.0750122Z" fill="#005B96"/>
</svg>
