<svg width="37" height="37" viewBox="0 0 37 37" fill="none" xmlns="http://www.w3.org/2000/svg">
<path d="M18.1801 16.165C13.7287 16.165 10.1201 12.5564 10.1201 8.10498C10.1201 3.65357 13.7287 0.0449829 18.1801 0.0449829C22.6315 0.0449829 26.2401 3.65357 26.2401 8.10498C26.2401 12.5564 22.6315 16.165 18.1801 16.165Z" fill="#005B96"/>
<path d="M0.046235 34.7014C0.827263 25.0844 8.63268 20.195 18.1464 20.195C27.7939 20.195 35.7203 24.8158 36.3107 34.703C36.3343 35.0969 36.3107 36.315 34.797 36.315C27.3303 36.315 16.2349 36.315 1.51084 36.315C1.0055 36.315 0.00369143 35.2252 0.046235 34.7014Z" fill="#0DB2F2"/>
</svg>
